<svg xmlns="http://www.w3.org/2000/svg" viewBox="0 0 100 100">
  <defs>
    <radialGradient id="aura" cx="50%" cy="50%" r="50%">
      <stop offset="0%" style="stop-color:#FFD700;stop-opacity:1" />
      <stop offset="100%" style="stop-color:#FFD700;stop-opacity:0" />
    </radialGradient>
  </defs>
  <!-- Aura Background -->
  <circle cx="50%" cy="50%" r="45%" fill="url(#aura)" opacity="0.6" />
  <!-- Boy Character Simplified -->
  <path d="M50 30 Q60 20 70 30 T80 50 Q80 70 50 85 Q20 70 20 50 T30 30 Q40 20 50 30" fill="#1a2634" />
  <circle cx="40" cy="45" r="3" fill="#FFD700" />
  <circle cx="60" cy="45" r="3" fill="#FFD700" />
  <path d="M45 60 Q50 65 55 60" fill="none" stroke="#FFD700" stroke-width="2" stroke-linecap="round" />
  <!-- Sparkles -->
  <path d="M80 20 L82 25 L87 27 L82 29 L80 34 L78 29 L73 27 L78 25 Z" fill="#FFE066" />
  <path d="M15 70 L17 75 L22 77 L17 79 L15 84 L13 79 L8 77 L13 75 Z" fill="#FFE066" />
</svg>
